<svg width="16" height="16" viewBox="0 0 16 16" fill="none" xmlns="http://www.w3.org/2000/svg">
<path d="M14 13.3333C14 13.5101 13.9298 13.6797 13.8047 13.8047C13.6797 13.9298 13.5101 14 13.3333 14H2.66667C2.48986 14 2.32029 13.9298 2.19526 13.8047C2.07024 13.6797 2 13.5101 2 13.3333V6.32666C1.99993 6.22507 2.02308 6.1248 2.06768 6.03353C2.11228 5.94225 2.17715 5.86237 2.25733 5.79999L7.59067 1.65133C7.7077 1.56029 7.85173 1.51086 8 1.51086C8.14827 1.51086 8.2923 1.56029 8.40933 1.65133L13.7427 5.79999C13.8229 5.86237 13.8877 5.94225 13.9323 6.03353C13.9769 6.1248 14.0001 6.22507 14 6.32666V13.3333ZM12.6667 12.6667V6.65199L8 3.02266L3.33333 6.65199V12.6667H12.6667Z" fill="black"/>
</svg>
