<svg width="1213" height="313" viewBox="0 0 1213 313" fill="none" xmlns="http://www.w3.org/2000/svg">
<path d="M71.0578 148.5C57.2817 145.852 50.8118 142.827 42.0579 134C25.5317 147.065 21.3065 160.034 20.0579 183C18.1962 217.246 61.7818 240.331 70.0579 237.5C87.5579 238 130.558 237.5 130.558 237.5C146.75 231.951 151.582 225.731 152.558 209H71.0578C55.0238 201.901 50.5536 195.463 48.0579 181C49.0967 164.451 53.9064 157.225 71.0578 148.5Z" fill="#0099A5" stroke="#0995A6"/>
<path d="M130.625 148C130.625 148 82.125 150.5 68.125 148C59.625 146.482 39.5 134 39.5 134C39.5 134 30.5893 124.143 28.625 121C23.625 113 21.125 104.5 20.125 89.5C19.125 74.5 24.125 63.5 35.125 49.5C44.1607 38 63.2917 32.6667 71.125 32H130.625C147.825 32 151.792 50 151.625 59C131.625 58.8333 87.625 57.5 73.125 59C59.0579 60.4552 48.625 73.5 48.125 81.5C47.625 89.5 47.25 87 48.125 98C49 109 65 119.5 70.625 121C76.25 122.5 150.125 121 150.125 121C150.292 122.667 150.525 126.9 150.125 130.5C149.625 135 149.125 134.5 145.125 139.5C141.925 143.5 134.125 146.833 130.625 148Z" fill="#FC4A00" stroke="#FF4801"/>
<path d="M254.058 164.234C267.834 166.882 274.304 169.908 283.058 178.734C299.584 165.669 303.809 152.7 305.058 129.734C306.919 95.4887 263.334 72.4036 255.058 75.2344C237.558 74.7344 194.558 75.2344 194.558 75.2344C178.366 80.7839 173.534 87.0036 172.558 103.734L254.058 103.734C270.092 110.833 274.562 117.272 277.058 131.734C276.019 148.283 271.209 155.509 254.058 164.234Z" fill="#0099A5" stroke="#0995A6"/>
<path d="M194.491 164.734C194.491 164.734 242.991 162.234 256.991 164.734C265.491 166.252 285.616 178.734 285.616 178.734C285.616 178.734 294.526 188.591 296.491 191.734C301.491 199.734 303.991 208.234 304.991 223.234C305.991 238.234 300.991 249.234 289.991 263.234C280.955 274.734 261.824 280.068 253.991 280.734H194.491C177.291 280.734 173.324 262.734 173.491 253.734C193.491 253.901 237.491 255.234 251.991 253.734C266.058 252.279 276.491 239.234 276.991 231.234C277.491 223.234 277.866 225.734 276.991 214.734C276.116 203.734 260.116 193.234 254.491 191.734C248.866 190.234 174.991 191.734 174.991 191.734C174.824 190.068 174.591 185.834 174.991 182.234C175.491 177.734 175.991 178.234 179.991 173.234C183.191 169.234 190.991 165.901 194.491 164.734Z" fill="#FC4A00" stroke="#FF4801"/>
<path d="M428.537 181.305V190.867H385.6V123.227H428.537V132.789H396.1V151.914H426.803V161.008H396.1V181.305H428.537ZM442.553 190.867V139.82H452.256V147.648H453.006C454.459 142.633 460.084 138.977 466.741 138.977C468.194 138.977 470.116 139.117 471.194 139.398V149.336C470.397 149.055 467.303 148.727 465.616 148.727C458.022 148.727 452.631 153.555 452.631 160.727V190.867H442.553ZM496.741 183.227C504.334 183.227 509.959 178.398 509.959 172.07V167.805L497.491 168.602C490.459 169.07 487.272 171.461 487.272 175.961C487.272 180.555 491.256 183.227 496.741 183.227ZM494.162 191.711C484.319 191.711 477.147 185.758 477.147 176.43C477.147 167.242 483.991 161.945 496.131 161.195L509.959 160.398V155.992C509.959 150.602 506.397 147.555 499.506 147.555C493.881 147.555 489.991 149.617 488.866 153.227H479.116C480.147 144.461 488.397 138.836 499.975 138.836C512.772 138.836 519.991 145.211 519.991 155.992V190.867H510.287V183.695H509.491C506.444 188.805 500.866 191.711 494.162 191.711ZM589.553 190.867H561.756V123.227H588.944C601.647 123.227 609.287 129.695 609.287 140.102C609.287 147.18 604.084 153.508 597.428 154.633V155.43C606.569 156.367 612.662 162.883 612.662 171.695C612.662 183.602 603.991 190.867 589.553 190.867ZM572.256 132.133V151.867H584.725C594.006 151.867 598.834 148.445 598.834 142.023C598.834 135.789 594.287 132.133 586.506 132.133H572.256ZM572.256 181.961H587.444C596.912 181.961 601.928 178.117 601.928 170.945C601.928 163.867 596.725 160.164 586.834 160.164H572.256V181.961ZM641.678 183.227C649.272 183.227 654.897 178.398 654.897 172.07V167.805L642.428 168.602C635.397 169.07 632.209 171.461 632.209 175.961C632.209 180.555 636.194 183.227 641.678 183.227ZM639.1 191.711C629.256 191.711 622.084 185.758 622.084 176.43C622.084 167.242 628.928 161.945 641.069 161.195L654.897 160.398V155.992C654.897 150.602 651.334 147.555 644.444 147.555C638.819 147.555 634.928 149.617 633.803 153.227H624.053C625.084 144.461 633.334 138.836 644.912 138.836C657.709 138.836 664.928 145.211 664.928 155.992V190.867H655.225V183.695H654.428C651.381 188.805 645.803 191.711 639.1 191.711ZM679.272 190.867V139.82H688.975V147.93H689.725C692.209 142.258 698.162 138.836 705.85 138.836C717.241 138.836 723.662 145.68 723.662 157.82V190.867H713.584V160.352C713.584 152.148 709.928 148.07 702.428 148.07C694.319 148.07 689.35 153.039 689.35 161.008V190.867H679.272ZM741.241 209.43C740.397 209.43 738.006 209.383 737.069 209.195V200.523C737.866 200.664 739.412 200.711 740.35 200.711C745.131 200.711 747.85 198.695 749.584 193.539L750.334 191.055L731.866 139.82H742.834L755.631 180.367H756.428L769.178 139.82H779.866L760.834 192.977C756.475 205.398 751.647 209.43 741.241 209.43ZM834.194 139.82V190.867H824.537V182.758H823.741C821.256 188.57 815.444 191.852 807.756 191.852C796.412 191.852 789.709 184.961 789.709 172.867V139.82H799.787V170.336C799.787 178.586 803.584 182.523 811.037 182.523C819.147 182.523 824.162 177.695 824.162 169.68V139.82H834.194ZM873.1 172.68H883.506C884.397 179.102 890.678 183.18 899.725 183.18C908.162 183.18 914.35 178.82 914.35 172.82C914.35 167.664 910.412 164.57 901.459 162.461L892.741 160.352C880.506 157.492 874.928 151.586 874.928 141.648C874.928 129.602 884.772 121.586 899.537 121.586C913.272 121.586 923.303 129.602 923.912 140.992H913.694C912.709 134.758 907.272 130.867 899.397 130.867C891.1 130.867 885.569 134.852 885.569 140.945C885.569 145.773 889.131 148.539 897.944 150.602L905.397 152.43C919.272 155.664 924.991 161.289 924.991 171.461C924.991 184.398 914.959 192.508 898.928 192.508C883.928 192.508 873.85 184.773 873.1 172.68ZM958.6 147.414C951.147 147.414 945.944 152.664 945.381 160.633H971.162C970.928 152.617 966.053 147.414 958.6 147.414ZM971.116 177.086H980.819C978.522 186.227 970.366 191.852 958.694 191.852C944.069 191.852 935.116 181.82 935.116 165.508C935.116 149.195 944.256 138.836 958.647 138.836C972.85 138.836 981.428 148.539 981.428 164.57V168.086H945.381V168.648C945.709 177.602 950.912 183.273 958.975 183.273C965.069 183.273 969.241 181.07 971.116 177.086ZM1028.72 164.711C1028.72 154.539 1023.47 148.023 1014.9 148.023C1006.22 148.023 1001.35 154.539 1001.35 164.711C1001.35 174.883 1006.22 181.398 1014.9 181.398C1023.52 181.398 1028.72 174.93 1028.72 164.711ZM1015.04 210.367C1002.29 210.367 994.037 204.648 992.959 195.977H1003.27C1004.12 199.68 1008.38 202.07 1015.18 202.07C1023.57 202.07 1028.54 198.086 1028.54 191.336V181.539H1027.79C1024.69 187.07 1019.07 190.117 1012.04 190.117C999.006 190.117 990.944 180.039 990.944 164.758C990.944 149.195 999.1 138.977 1012.13 138.977C1019.16 138.977 1025.3 142.445 1028.16 147.977H1028.96V139.82H1038.62V191.289C1038.62 202.961 1029.47 210.367 1015.04 210.367ZM1069.93 183.227C1077.52 183.227 1083.15 178.398 1083.15 172.07V167.805L1070.68 168.602C1063.65 169.07 1060.46 171.461 1060.46 175.961C1060.46 180.555 1064.44 183.227 1069.93 183.227ZM1067.35 191.711C1057.51 191.711 1050.33 185.758 1050.33 176.43C1050.33 167.242 1057.18 161.945 1069.32 161.195L1083.15 160.398V155.992C1083.15 150.602 1079.58 147.555 1072.69 147.555C1067.07 147.555 1063.18 149.617 1062.05 153.227H1052.3C1053.33 144.461 1061.58 138.836 1073.16 138.836C1085.96 138.836 1093.18 145.211 1093.18 155.992V190.867H1083.47V183.695H1082.68C1079.63 188.805 1074.05 191.711 1067.35 191.711ZM1107.52 190.867V139.82H1117.22V147.648H1117.97C1119.43 142.633 1125.05 138.977 1131.71 138.977C1133.16 138.977 1135.08 139.117 1136.16 139.398V149.336C1135.37 149.055 1132.27 148.727 1130.58 148.727C1122.99 148.727 1117.6 153.555 1117.6 160.727V190.867H1107.52ZM1161.71 183.227C1169.3 183.227 1174.93 178.398 1174.93 172.07V167.805L1162.46 168.602C1155.43 169.07 1152.24 171.461 1152.24 175.961C1152.24 180.555 1156.22 183.227 1161.71 183.227ZM1159.13 191.711C1149.29 191.711 1142.12 185.758 1142.12 176.43C1142.12 167.242 1148.96 161.945 1161.1 161.195L1174.93 160.398V155.992C1174.93 150.602 1171.37 147.555 1164.47 147.555C1158.85 147.555 1154.96 149.617 1153.83 153.227H1144.08C1145.12 144.461 1153.37 138.836 1164.94 138.836C1177.74 138.836 1184.96 145.211 1184.96 155.992V190.867H1175.26V183.695H1174.46C1171.41 188.805 1165.83 191.711 1159.13 191.711Z" fill="black"/>
</svg>
